# xmcd CD database file
#
# Track frame offsets:
#	150
#	12302
#	23392
#	36126
#	49989
#	63864
#	75276
#	88465
#	100091
#	112891
#	126379
#	137117
#	149515
#	163177
#	176483
#	189428
#	203209
#	216089
#	226483
#	238844
#	251908
#	265786
#
# Disc length: 3708 seconds
#
# Revision: 0
# Processed by: cddbd v1.5.2PL0 Copyright (c) Steve Scherf et al.
# Submitted via: CDex 1.70beta2
#
DISCID=370e7a16
DTITLE=Various Artist - Country #1's - CD3 - (Original Recordings)
DYEAR=2004
DGENRE=Country Classics
TTITLE0=Hank Williams and The Drifting Cowboys - Long gone lonesome blues
TTITLE1=Webb Pierce - There stands the glass
TTITLE2=Al Dexter - Sundown plka
TTITLE3=Dick Thomas - Sioux City Sue
TTITLE4=Red Foley with The Dixie Dons - Birmingham Bounce
TTITLE5=Bob Wills and His Texas Playboys - Silver Dew om the blue grass tonight
TTITLE6=Carl Smith - Let old mother nature have her way
TTITLE7=Eddy Arnold - A full time job
TTITLE8=Hank Snow - The rhumba boogie
TTITLE9=Red Foley - Smoke on the water
TTITLE10=Lefty Frizzel - Give me more more more (Of your kisses)
TTITLE11=Tex Ritter - You two timed me on time too often
TTITLE12=Webb Pierce - Wondering
TTITLE13=George Morgsan - Candy kisses
TTITLE14=Tex Ritter - I'm wasting my tears on you
TTITLE15=Wayne Raney - Why don't you haul off and love me
TTITLE16=Al Dexter - Wine, women and song
TTITLE17=Bob Wills and His Texas Playboys - Sugar moon
TTITLE18=Eddy Arnold (and His Tennessee Plowboys) - Texarkana baby
TTITLE19=Delmore Brothers - Blues stay away from me
TTITLE20=Ernest Tubb and Red Foley - Goodnight Irene
TTITLE21=Hank Williams and The Drifting Cowboys - Cold cold heart
EXTD=YEAR: 2004
EXTT0=
EXTT1=
EXTT2=
EXTT3=
EXTT4=
EXTT5=
EXTT6=
EXTT7=
EXTT8=
EXTT9=
EXTT10=
EXTT11=
EXTT12=
EXTT13=
EXTT14=
EXTT15=
EXTT16=
EXTT17=
EXTT18=
EXTT19=
EXTT20=
EXTT21=
PLAYORDER=
